<svg width="184" height="65" viewBox="0 0 184 65" fill="none" xmlns="http://www.w3.org/2000/svg">
<path d="M150.5 63.8C150.2 63.8 150 63.6 150 63.3V4.60001C150 4.40001 150.2 4.20001 150.4 4.10001L160.6 2.00001C160.9 1.90001 161.1 2.10001 161.2 2.40001V2.50001V63.3C161.2 63.6 161 63.8 160.7 63.8H150.5Z" fill="#1C4396"/>
<path d="M21.9 65C18 65.1 14.2 64 11 62C7.79998 60 5.09998 57.2 3.39998 53.9C1.49998 50.3 0.499977 46.2 0.599977 42.2C0.499977 38.1 1.49998 34.1 3.39998 30.5C5.19998 27.2 7.79998 24.4 11 22.4C14.3 20.4 18.1 19.3 22 19.4C25 19.3 27.9 20 30.6 21.2C32.5 22.1 34.2 23.5 35.6 25.1C35.8 25.4 36.1 25.4 36.3 25.3C36.5 25.2 36.6 25 36.6 24.8V3.60001C36.6 3.40001 36.8 3.20001 37 3.10001L47.1 1.00001C47.4 0.900012 47.6 1.10001 47.7 1.40001V1.50001V63.5C47.7 63.8 47.5 64 47.2 64H38C37.8 64 37.6 63.8 37.5 63.6L36.6 58.9C36.5 58.6 36.3 58.4 36 58.5C35.9 58.5 35.8 58.6 35.7 58.7C34.3 60.3 32.6 61.8 30.8 62.9C28.1 64.4 25 65.1 21.9 65ZM24.2 55.2C27.5 55.3 30.8 54 33 51.6C35.4 49.1 36.6 45.7 36.5 42.2C36.6 38.8 35.4 35.4 33 32.9C30.7 30.4 27.5 29.1 24.2 29.2C20.9 29.1 17.7 30.4 15.4 32.8C13 35.3 11.8 38.6 11.9 42.1C11.8 45.6 13 48.9 15.4 51.5C17.7 53.9 20.9 55.3 24.2 55.2Z" fill="#1C4396"/>
<path d="M75 65C70.9 65.1 66.9 64.1 63.3 62.2C59.9 60.4 57.2 57.6 55.3 54.3C53.3 50.7 52.3 46.7 52.4 42.6C52.3 38.4 53.3 34.3 55.2 30.6C57 27.2 59.8 24.4 63.1 22.4C66.7 20.3 70.8 19.3 75 19.4C79 19.3 82.9 20.3 86.3 22.2C89.5 24 92.2 26.7 93.9 30C95.8 33.3 96.8 37 96.7 40.8C96.7 41.5 96.7 42.1 96.6 42.8C96.6 43.4 96.6 43.9 96.6 44.5C96.6 44.8 96.4 45 96.1 44.9H64C63.7 44.9 63.5 45.1 63.5 45.4C63.5 45.4 63.5 45.4 63.5 45.5C63.8 51.5 68.8 56.1 74.8 55.8C76.8 55.9 78.8 55.4 80.5 54.3C81.9 53.4 83.1 52.1 83.9 50.5C84 50.3 84.2 50.2 84.3 50.2H94.7C95 50.2 95.2 50.4 95.2 50.7C95.2 50.8 95.2 50.8 95.2 50.9C94.4 53.4 93 55.8 91.3 57.8C89.4 60.1 87 61.8 84.3 63.1C81.5 64.4 78.2 65.1 75 65ZM75.1 28.6C72.5 28.6 69.9 29.4 67.8 31C65.7 32.6 64.3 34.9 63.9 37.4C63.8 37.7 64 37.9 64.3 38H64.4H84.9C85.2 38 85.4 37.8 85.4 37.6C85.4 37.6 85.4 37.6 85.4 37.5C85.2 35.1 84.1 32.8 82.3 31.2C80.3 29.4 77.7 28.5 75.1 28.6Z" fill="#1C4396"/>
<path d="M123.8 65C119.7 65.1 115.7 64.1 112.1 62.2C108.7 60.4 106 57.6 104.1 54.3C102.1 50.7 101.1 46.7 101.2 42.6C101.1 38.4 102.1 34.3 104 30.6C105.8 27.2 108.6 24.4 112 22.5C115.6 20.4 119.7 19.4 123.9 19.5C127.8 19.4 131.7 20.4 135.2 22.3C138.4 24.1 141 26.8 142.8 30.1C144.7 33.4 145.7 37.1 145.6 40.9C145.6 41.6 145.6 42.2 145.5 42.9C145.5 43.5 145.5 44 145.4 44.6C145.4 44.9 145.2 45.1 144.9 45H112.8C112.5 45 112.3 45.2 112.3 45.5C112.3 45.5 112.3 45.5 112.3 45.6C112.5 48.4 113.7 51.1 115.8 53.1C117.9 55 120.7 56 123.6 56C125.6 56.1 127.6 55.6 129.3 54.5C130.7 53.6 131.9 52.3 132.7 50.7C132.8 50.5 133 50.4 133.1 50.4H143.5C143.8 50.4 144 50.6 144 50.9C144 51 144 51 144 51.1C143.2 53.6 141.8 56 140.1 58C138.2 60.3 135.8 62 133.1 63.3C130.2 64.4 127 65.1 123.8 65ZM123.9 28.6C121.3 28.6 118.7 29.4 116.6 31C114.5 32.6 113.1 34.9 112.7 37.4C112.6 37.6 112.8 37.9 113 38H113.1H133.6C133.9 38 134.1 37.8 134.1 37.5C134.1 37.5 134.1 37.5 134.1 37.4C133.9 35 132.8 32.7 131 31.1C129.1 29.4 126.5 28.5 123.9 28.6Z" fill="#1C4396"/>
<path d="M175.9 63.8C180.097 63.8 183.5 60.3973 183.5 56.2C183.5 52.0026 180.097 48.6 175.9 48.6C171.703 48.6 168.3 52.0026 168.3 56.2C168.3 60.3973 171.703 63.8 175.9 63.8Z" fill="#2C71F0"/>
</svg>
