<svg width="16" height="16" viewBox="0 0 16 16" fill="none" xmlns="http://www.w3.org/2000/svg">
<path d="M9.81955 6.18027C11.4161 7.77686 11.5188 10.3142 10.1242 12.029C9.92918 12.2706 10.0372 12.1498 7.46987 14.7171C5.76062 16.4264 2.99281 16.4279 1.28268 14.7171C-0.427038 13.0081 -0.427757 10.2404 1.28268 8.52996C2.30684 7.5058 2.90252 6.90811 3.26421 6.54693C3.49743 6.31405 3.89956 6.47336 3.9044 6.80293C3.91021 7.20122 3.95995 7.59766 4.05271 7.98505C4.0829 8.11096 4.04421 8.24346 3.95265 8.33499L2.51987 9.76746C1.49627 10.7917 1.49215 12.4516 2.51987 13.48C3.54409 14.5036 5.20399 14.5077 6.23237 13.48L8.58206 11.13C9.60449 10.1073 9.60634 8.44205 8.58206 7.41777C8.37456 7.2099 8.13355 7.03845 7.86912 6.91061C7.72465 6.84083 7.64468 6.68405 7.66409 6.5248C7.70646 6.17724 7.86084 5.8409 8.12706 5.57465L8.26377 5.43793C8.37706 5.32461 8.55055 5.29436 8.69377 5.36624C9.09999 5.57011 9.48087 5.84158 9.81955 6.18027ZM14.7176 1.28215C13.0074 -0.428636 10.2396 -0.427104 8.53037 1.28215C5.96299 3.84952 6.07106 3.72871 5.87599 3.97027C4.4814 5.68505 4.58409 8.22243 6.18068 9.81902C6.51937 10.1577 6.90024 10.4292 7.30646 10.6331C7.44965 10.7049 7.62315 10.6746 7.73646 10.5614L7.87318 10.4246C8.13943 10.1584 8.29377 9.82205 8.33615 9.47449C8.35555 9.31524 8.27559 9.15846 8.13112 9.08868C7.86668 8.96085 7.62567 8.7894 7.41818 8.58152C6.3939 7.55724 6.39574 5.89199 7.41818 4.86933L9.76787 2.51933C10.7962 1.49161 12.4561 1.49574 13.4804 2.51933C14.5081 3.54771 14.504 5.20761 13.4804 6.23183L12.0476 7.66433C11.9561 7.75586 11.9174 7.88836 11.9476 8.01427C12.0403 8.40166 12.0901 8.7981 12.0959 9.19639C12.1007 9.52596 12.5028 9.68527 12.7361 9.4524C13.0977 9.09121 13.6934 8.49352 14.7176 7.46936C16.428 5.7589 16.4273 2.99124 14.7176 1.28215V1.28215Z" fill="#383C3F"/>
</svg>
