<svg width="35" height="73" viewBox="0 0 35 73" fill="none" xmlns="http://www.w3.org/2000/svg">
<path d="M32.036 70.6241C32.036 71.9245 25.4838 72.9999 17.381 72.9999C9.2782 72.9999 2.72595 71.9245 2.72595 70.6241C2.72595 69.3236 9.2782 68.2483 17.381 68.2483C25.4838 68.2483 32.036 69.2986 32.036 70.6241Z" fill="#CCCCCC"/>
<path d="M2.12585 45.9407V6.77725L2.47597 6.35211C3.85144 4.62652 9.92853 2.15067 17.3811 2.15067C24.8336 2.15067 30.9357 4.65153 32.2862 6.35211L32.6363 6.77725V45.9407L17.3811 62.1462L2.12585 45.9407Z" fill="black"/>
<path d="M26.9841 31.1357C28.8098 29.6352 30.6604 26.9342 30.6604 22.1076C30.6604 18.2563 28.6597 18.2062 25.9588 18.2062H8.82793C6.127 18.2062 4.12632 18.2563 4.12632 22.1076C4.12632 26.9342 5.97695 29.6352 7.80258 31.1357C5.22669 34.1867 3.70117 38.013 3.70117 41.6643V47.3412L17.3809 61.5211L31.0605 47.3412V41.6643C31.0605 38.013 29.535 34.1867 26.9841 31.1357Z" fill="white"/>
<path d="M11.5287 55.469L17.3807 61.5211L23.2327 55.469H11.5287Z" fill="black"/>
<path d="M29.0099 2.00069C25.6088 0.725249 21.4573 0 17.381 0C13.2795 0 9.15313 0.70024 5.75197 2.00069C3.12607 3.00103 0 4.6766 0 7.07742V46.0658C0 46.541 0.17506 46.9911 0.500171 47.3412L16.0305 63.8469C16.3806 64.222 16.8558 64.4221 17.381 64.4221C17.8811 64.4221 18.3813 64.222 18.7314 63.8469L34.2617 47.3412C34.5868 46.9911 34.7619 46.541 34.7619 46.0658V17.431V7.10243C34.7619 4.6766 31.6358 3.00103 29.0099 2.00069ZM31.0606 45.3405L17.381 59.8705L3.70127 45.3405V7.32751C4.60158 6.20212 10.1035 3.70127 17.381 3.70127C24.6584 3.70127 30.1603 6.17711 31.0606 7.32751V45.3405Z" fill="black"/>
<path d="M17.3808 48.2414C12.079 48.2414 6.80221 47.6662 1.5254 46.5158C0.725128 46.3408 0.224957 45.5655 0.400016 44.7652C0.575076 43.965 1.35034 43.4648 2.15062 43.6399C12.2541 45.8406 22.4826 45.8406 32.586 43.6399C33.3863 43.4648 34.1616 43.965 34.3366 44.7652C34.5117 45.5655 34.0115 46.3408 33.2112 46.5158C27.9594 47.6662 22.6826 48.2414 17.3808 48.2414Z" fill="black"/>
<path d="M16.6558 31.9609C16.6558 32.8862 15.9056 33.6365 14.9803 33.6365C14.0549 33.6365 13.3047 32.8862 13.3047 31.9609C13.3047 31.0356 14.0549 30.2853 14.9803 30.2853C15.9056 30.3103 16.6558 31.0606 16.6558 31.9609Z" fill="black"/>
<path d="M21.4572 31.9609C21.4572 32.8862 20.707 33.6365 19.7817 33.6365C18.8563 33.6365 18.1061 32.8862 18.1061 31.9609C18.1061 31.0356 18.8563 30.2853 19.7817 30.2853C20.707 30.3103 21.4572 31.0606 21.4572 31.9609Z" fill="black"/>
<path d="M14.7549 26.1841C14.5798 26.1841 14.3798 26.1591 14.2047 26.0841C12.5791 25.4089 10.9786 25.4089 9.35303 26.0841C8.60277 26.3842 7.72747 26.0341 7.42737 25.2838C7.12727 24.5336 7.47739 23.6583 8.22764 23.3582C10.5784 22.4078 12.9543 22.4078 15.3051 23.3582C16.0553 23.6583 16.4305 24.5336 16.1053 25.2838C15.8803 25.834 15.3301 26.1841 14.7549 26.1841Z" fill="black"/>
<path d="M25.9586 26.1841C25.7836 26.1841 25.5835 26.1591 25.4084 26.0841C23.7829 25.4089 22.1823 25.4089 20.5568 26.0841C19.8065 26.3842 18.9312 26.0341 18.6311 25.2838C18.331 24.5336 18.6811 23.6583 19.4314 23.3582C21.7822 22.4078 24.158 22.4078 26.5088 23.3582C27.2591 23.6583 27.6342 24.5336 27.3091 25.2838C27.109 25.834 26.5588 26.1841 25.9586 26.1841Z" fill="black"/>
</svg>
