<svg width="334" height="250" viewBox="0 0 334 250" fill="none" xmlns="http://www.w3.org/2000/svg">
<path d="M89.1387 83.1247C91.954 83.1247 94.3155 80.9579 94.5075 78.1507C97.0717 40.5642 128.469 10.7683 166.695 10.7683C204.92 10.7683 236.318 40.5642 238.882 78.1507C239.074 80.9593 241.436 83.1247 244.251 83.1247C247.376 83.1247 249.836 80.4719 249.624 77.3532C248.26 57.3215 239.804 38.678 225.472 24.3452C209.864 8.73712 188.767 0 166.695 0C144.491 0 123.617 8.64582 107.917 24.3466C93.5865 38.6766 85.1326 57.3175 83.766 77.3465C83.5538 80.4679 86.0093 83.1247 89.1387 83.1247Z" fill="white"/>
<path d="M75.754 95.2575V95.5689V124.296V132.598V143.078V143.389C75.754 146.19 78.0242 148.459 80.8234 148.459H101.988V143.078V116.44V107.243V95.5703V90.1895H80.8234C78.0229 90.1881 75.754 92.4583 75.754 95.2575Z" fill="white"/>
<path d="M59.7522 100.769V137.876C59.7522 140.748 62.0801 143.077 64.9531 143.077H71.7718V95.5696H64.9531C62.0801 95.5682 59.7522 97.8962 59.7522 100.769Z" fill="white"/>
<path d="M252.573 90.1884H231.409V95.5692H231.378V143.077H231.409V148.458H252.573C255.374 148.458 257.643 146.187 257.643 143.388V116.439H257.612V107.242H257.643V95.2577C257.643 92.4586 255.374 90.1884 252.573 90.1884Z" fill="white"/>
<path d="M268.441 95.5685H261.623V143.076H268.441C271.313 143.076 273.642 140.748 273.642 137.875V100.768C273.641 97.8964 271.313 95.5685 268.441 95.5685Z" fill="white"/>
<path d="M113.149 134.378C112.281 134.378 111.576 133.674 111.576 132.805V105.882C111.576 105.013 112.281 104.309 113.149 104.309C114.018 104.309 114.723 105.013 114.723 105.882V132.804C114.723 133.674 114.018 134.378 113.149 134.378Z" fill="white"/>
<path d="M121.13 133.63C120.261 133.63 119.556 132.925 119.556 132.056V106.63C119.556 105.762 120.261 105.057 121.13 105.057C121.998 105.057 122.703 105.762 122.703 106.63V132.056C122.703 132.925 122 133.63 121.13 133.63Z" fill="white"/>
<path d="M128.607 145.845C127.739 145.845 127.034 145.14 127.034 144.271V94.4168C127.034 93.5482 127.739 92.8434 128.607 92.8434C129.476 92.8434 130.181 93.5482 130.181 94.4168V144.271C130.181 145.14 129.476 145.845 128.607 145.845Z" fill="white"/>
<path d="M136.533 136.929C135.665 136.929 134.96 136.224 134.96 135.356V103.331C134.96 102.463 135.665 101.758 136.533 101.758C137.402 101.758 138.107 102.463 138.107 103.331V135.354C138.107 136.224 137.402 136.929 136.533 136.929Z" fill="white"/>
<path d="M144.508 139.862C143.64 139.862 142.935 139.157 142.935 138.288V100.398C142.935 99.5296 143.64 98.8248 144.508 98.8248C145.377 98.8248 146.082 99.5296 146.082 100.398V138.288C146.082 139.158 145.378 139.862 144.508 139.862Z" fill="white"/>
<path d="M152.433 139.253C151.565 139.253 150.86 138.549 150.86 137.68V101.004C150.86 100.135 151.565 99.4303 152.433 99.4303C153.302 99.4303 154.007 100.135 154.007 101.004V137.68C154.007 138.55 153.303 139.253 152.433 139.253Z" fill="white"/>
<path d="M159.368 130.016C158.5 130.016 157.795 129.311 157.795 128.443V110.246C157.795 109.377 158.5 108.673 159.368 108.673C160.237 108.673 160.942 109.377 160.942 110.246V128.443C160.942 129.313 160.237 130.016 159.368 130.016Z" fill="white"/>
<path d="M171.883 131.25C171.014 131.25 170.31 130.545 170.31 129.677V109.013C170.31 108.144 171.014 107.439 171.883 107.439C172.752 107.439 173.456 108.144 173.456 109.013V129.677C173.456 130.545 172.752 131.25 171.883 131.25Z" fill="white"/>
<path d="M165.915 144.906C165.047 144.906 164.342 144.201 164.342 143.332V95.3559C164.342 94.4873 165.047 93.7825 165.915 93.7825C166.784 93.7825 167.489 94.4873 167.489 95.3559V143.332C167.489 144.202 166.784 144.906 165.915 144.906Z" fill="white"/>
<path d="M186.339 138.616C185.471 138.616 184.766 137.912 184.766 137.043V101.646C184.766 100.777 185.471 100.073 186.339 100.073C187.208 100.073 187.913 100.777 187.913 101.646V137.043C187.913 137.912 187.209 138.616 186.339 138.616Z" fill="white"/>
<path d="M179.363 137.868C178.494 137.868 177.789 137.164 177.789 136.295V102.394C177.789 101.525 178.494 100.82 179.363 100.82C180.231 100.82 180.936 101.525 180.936 102.394V136.295C180.938 137.164 180.233 137.868 179.363 137.868Z" fill="white"/>
<path d="M194.314 141.857C193.446 141.857 192.741 141.152 192.741 140.284V98.4052C192.741 97.5366 193.446 96.8318 194.314 96.8318C195.183 96.8318 195.888 97.5366 195.888 98.4052V140.284C195.888 141.152 195.183 141.857 194.314 141.857Z" fill="white"/>
<path d="M201.988 142.165C201.119 142.165 200.415 141.461 200.415 140.592V98.0998C200.415 97.2312 201.119 96.5264 201.988 96.5264C202.857 96.5264 203.562 97.2312 203.562 98.0998V140.592C203.562 141.461 202.857 142.165 201.988 142.165Z" fill="white"/>
<path d="M210.762 130.361C209.894 130.361 209.189 129.656 209.189 128.787V109.901C209.189 109.032 209.894 108.327 210.762 108.327C211.631 108.327 212.336 109.032 212.336 109.901V128.787C212.336 129.656 211.631 130.361 210.762 130.361Z" fill="white"/>
<path d="M220.238 131.386C219.37 131.386 218.665 130.682 218.665 129.813V108.874C218.665 108.005 219.37 107.3 220.238 107.3C221.107 107.3 221.812 108.005 221.812 108.874V129.813C221.812 130.683 221.108 131.386 220.238 131.386Z" fill="white"/>
<path d="M99.7894 228.08C99.7894 229.781 99.1934 231.225 98.0052 232.414C96.8144 233.605 95.3699 234.198 93.6716 234.198C91.9706 234.198 90.5274 233.605 89.3379 232.414C88.1471 231.225 87.5537 229.781 87.5537 228.08V225.15C87.4678 222.6 86.8731 220.498 85.7695 218.841C84.6646 217.185 83.3476 215.89 81.8185 214.955C80.2894 214.02 78.6327 213.384 76.8485 213.043C75.0643 212.705 73.4492 212.533 72.006 212.533H50.3404H49.9578H49.4477H27.7834C25.1494 212.533 22.4939 212.194 19.8183 211.514C17.1413 210.834 14.6133 209.815 12.2357 208.456V228.082C12.2357 229.783 11.6396 231.226 10.4515 232.415C9.2607 233.606 7.81749 234.2 6.11786 234.2C4.41689 234.2 2.97368 233.606 1.7842 232.415C0.59339 231.226 0 229.783 0 228.082V184.751C0 183.052 0.59339 181.608 1.7842 180.417C2.97233 179.228 4.41689 178.633 6.11786 178.633C7.81615 178.633 9.2607 179.228 10.4515 180.417C11.6396 181.608 12.2357 183.051 12.2357 184.751V186.917C12.2357 189.637 12.766 191.869 13.8293 193.609C14.8899 195.351 16.2069 196.711 17.7803 197.687C19.3511 198.665 21.0306 199.344 22.8148 199.726C24.599 200.109 26.2556 200.3 27.7848 200.3H49.833H49.9605H50.3431H72.0087C74.6414 200.3 77.2969 200.641 79.9739 201.319C82.6508 201.999 85.1775 203.02 87.5578 204.377V184.751C87.5578 183.052 88.1511 181.608 89.342 180.417C90.5301 179.228 91.9746 178.633 93.6756 178.633C95.3739 178.633 96.8184 179.228 98.0093 180.417C99.1974 181.608 99.7935 183.051 99.7935 184.751V228.08H99.7894Z" fill="white"/>
<path d="M122.985 211.193C120.946 210.301 119.161 209.091 117.632 207.562C116.103 206.033 114.892 204.249 113.999 202.209C113.107 200.17 112.661 197.961 112.661 195.581C112.661 193.204 113.107 190.994 113.999 188.955C114.892 186.915 116.102 185.131 117.632 183.602C119.161 182.073 120.946 180.862 122.985 179.969C125.024 179.076 127.233 178.631 129.612 178.631H206.971C208.67 178.631 210.114 179.225 211.305 180.415C212.493 181.606 213.089 183.049 213.089 184.748C213.089 186.449 212.493 187.893 211.305 189.082C210.114 190.273 208.671 190.866 206.971 190.866H129.356C128.082 190.866 126.955 191.312 125.979 192.205C125.001 193.098 124.513 194.224 124.513 195.583C124.513 196.857 125 197.963 125.979 198.896C126.955 199.832 128.081 200.297 129.356 200.297H199.833C202.211 200.297 204.441 200.743 206.524 201.636C208.605 202.529 210.411 203.738 211.941 205.269C213.471 206.798 214.682 208.604 215.573 210.686C216.466 212.769 216.911 214.999 216.911 217.377C216.911 219.757 216.466 221.966 215.573 224.004C214.68 226.043 213.471 227.827 211.941 229.356C210.412 230.885 208.607 232.076 206.524 232.925C204.441 233.775 202.211 234.199 199.833 234.199H122.601C120.9 234.199 119.457 233.605 118.267 232.415C117.076 231.225 116.483 229.782 116.483 228.081C116.483 226.383 117.076 224.938 118.267 223.747C119.457 222.558 120.9 221.963 122.601 221.963H200.342C201.616 221.963 202.72 221.517 203.655 220.625C204.588 219.732 205.057 218.65 205.057 217.374C205.057 216.016 204.588 214.869 203.655 213.933C202.72 212.999 201.616 212.532 200.342 212.532H129.61C127.233 212.532 125.024 212.085 122.985 211.193Z" fill="white"/>
<path d="M331.868 196.855C330.849 193.628 329.383 190.696 327.472 188.062C325.56 185.429 323.244 183.241 320.525 181.498C317.805 179.758 314.704 178.802 311.222 178.631H253.107C249.452 178.631 246.181 179.48 243.293 181.18C240.404 182.881 237.94 185.067 235.901 187.744C233.862 190.421 232.311 193.396 231.249 196.665C230.186 199.936 229.656 203.187 229.656 206.414C229.656 209.558 230.166 212.744 231.185 215.973C232.205 219.203 233.67 222.134 235.582 224.766C237.493 227.4 239.806 229.589 242.528 231.33C245.246 233.072 248.346 234.028 251.831 234.197H282.035C283.734 234.197 285.178 233.604 286.369 232.413C287.557 231.224 288.153 229.78 288.153 228.08C288.153 226.381 287.557 224.937 286.369 223.746C285.178 222.556 283.734 221.962 282.035 221.962H255.781C252.806 221.962 250.407 221.431 248.58 220.368C246.751 219.306 245.308 218.011 244.247 216.482C243.184 214.952 242.463 213.276 242.081 211.447C241.698 209.621 241.507 207.942 241.507 206.413C241.507 204.884 241.698 203.207 242.081 201.378C242.463 199.552 243.184 197.873 244.247 196.344C245.308 194.815 246.753 193.52 248.58 192.457C250.406 191.395 252.806 190.864 255.781 190.864H307.269C310.157 190.864 312.536 191.395 314.406 192.457C316.274 193.52 317.74 194.815 318.803 196.344C319.864 197.873 320.587 199.552 320.97 201.378C321.351 203.207 321.543 204.884 321.543 206.413C321.543 207.942 321.352 209.62 320.97 211.447C320.587 213.276 319.865 214.952 318.803 216.482C317.74 218.011 316.274 219.308 314.406 220.368C312.536 221.431 310.157 221.962 307.269 221.962C305.568 221.962 304.125 222.556 302.937 223.746C301.746 224.937 301.153 226.38 301.153 228.08C301.153 229.78 301.746 231.224 302.937 232.413C304.125 233.604 305.57 234.197 307.269 234.197H309.946C313.598 234.197 316.87 233.349 319.759 231.648C322.647 229.95 325.111 227.761 327.151 225.084C329.19 222.407 330.739 219.435 331.803 216.163C332.864 212.893 333.396 209.644 333.396 206.414C333.397 203.271 332.889 200.085 331.868 196.855Z" fill="white"/>
<path d="M294.649 249.999C299.013 249.999 302.551 246.461 302.551 242.097C302.551 237.733 299.013 234.195 294.649 234.195C290.285 234.195 286.747 237.733 286.747 242.097C286.747 246.461 290.285 249.999 294.649 249.999Z" fill="white"/>
</svg>
