<svg width="110" height="91" viewBox="0 0 110 91" fill="none" xmlns="http://www.w3.org/2000/svg">
<path d="M2.92479 86.7759H0.533309V84.8366H0V89.0415H0.533309V87.2782H2.92479V89.0415H3.4581V84.8366H2.92479V86.7759Z" fill="black"/>
<path d="M13.4628 86.2487C13.3122 86.0981 13.1354 85.9798 12.9326 85.8939C12.7297 85.8084 12.5131 85.7655 12.2828 85.7655C12.0524 85.7655 11.8363 85.8084 11.6334 85.8939C11.4305 85.9798 11.2538 86.0977 11.1032 86.2487C10.9526 86.3993 10.8334 86.5761 10.7453 86.7789C10.6576 86.9818 10.6133 87.2006 10.6133 87.4349C10.6133 87.6653 10.6571 87.8805 10.7453 88.0812C10.833 88.2819 10.9526 88.4577 11.1032 88.6083C11.2538 88.7589 11.4305 88.8781 11.6334 88.9662C11.8363 89.0539 12.0529 89.0982 12.2828 89.0982C12.5126 89.0982 12.7292 89.0544 12.9326 88.9662C13.1354 88.8785 13.3122 88.7589 13.4628 88.6083C13.6134 88.4577 13.7325 88.2819 13.8207 88.0812C13.9088 87.8805 13.9522 87.6648 13.9522 87.4349C13.9522 87.2006 13.9084 86.9822 13.8207 86.7789C13.7325 86.5761 13.6134 86.3993 13.4628 86.2487ZM13.3277 87.8712C13.2754 88.0117 13.201 88.1361 13.1049 88.2446C13.0087 88.3536 12.8905 88.4404 12.7501 88.5051C12.6096 88.5702 12.4542 88.6026 12.2823 88.6026C12.1109 88.6026 11.955 88.5702 11.8146 88.5051C11.6741 88.4404 11.555 88.3536 11.4567 88.2446C11.3583 88.1361 11.283 88.0117 11.2308 87.8712C11.1785 87.7313 11.1523 87.5855 11.1523 87.4349C11.1523 87.2843 11.1785 87.1382 11.2308 86.9955C11.283 86.8533 11.3583 86.728 11.4567 86.619C11.555 86.5101 11.6741 86.4232 11.8146 86.3586C11.9545 86.2939 12.1104 86.2611 12.2823 86.2611C12.4537 86.2611 12.6096 86.2935 12.7501 86.3586C12.89 86.4237 13.0083 86.5101 13.1049 86.619C13.201 86.728 13.2754 86.8533 13.3277 86.9955C13.3799 87.1377 13.4061 87.2843 13.4061 87.4349C13.4061 87.5855 13.3799 87.7308 13.3277 87.8712Z" fill="black"/>
<path d="M21.4833 84.5231H20.981V89.0417H21.4833V84.5231Z" fill="black"/>
<path d="M29.2652 84.5231H28.7629V89.0417H29.2652V84.5231Z" fill="black"/>
<path d="M37.6246 88.3262L36.6958 85.8284H36.1372L37.3544 89.0163L36.8149 90.3784H37.3482L39.1683 85.8284H38.6097L37.6246 88.3262Z" fill="black"/>
<path d="M49.0786 88.2947L48.2875 85.8284H47.7418L46.9507 88.2947L46.1915 85.8284H45.6329L46.6871 89.0416H47.1957L48.0178 86.4999L48.8337 89.0416H49.3422L50.3964 85.8284H49.8378L49.0786 88.2947Z" fill="black"/>
<path d="M59.8163 86.2487C59.6657 86.0981 59.489 85.9798 59.2861 85.8939C59.0832 85.8084 58.8666 85.7655 58.6368 85.7655C58.4064 85.7655 58.1903 85.8084 57.9874 85.8939C57.7845 85.9798 57.6078 86.0977 57.4572 86.2487C57.3066 86.3993 57.1874 86.5761 57.0993 86.7789C57.0116 86.9818 56.9673 87.2006 56.9673 87.4349C56.9673 87.6653 57.0111 87.8805 57.0993 88.0812C57.187 88.2819 57.3066 88.4577 57.4572 88.6083C57.6078 88.7589 57.7845 88.8781 57.9874 88.9662C58.1903 89.0539 58.4069 89.0982 58.6368 89.0982C58.8666 89.0982 59.0832 89.0544 59.2861 88.9662C59.489 88.8785 59.6657 88.7589 59.8163 88.6083C59.9669 88.4577 60.0861 88.2819 60.1742 88.0812C60.2619 87.8805 60.3062 87.6648 60.3062 87.4349C60.3062 87.2006 60.2624 86.9822 60.1742 86.7789C60.0865 86.5761 59.9669 86.3993 59.8163 86.2487ZM59.6817 87.8712C59.6294 88.0117 59.555 88.1361 59.4589 88.2446C59.3627 88.3536 59.2445 88.4404 59.1041 88.5051C58.9637 88.5702 58.8082 88.6026 58.6363 88.6026C58.4649 88.6026 58.309 88.5702 58.169 88.5051C58.0286 88.4404 57.9094 88.3536 57.8111 88.2446C57.7128 88.1361 57.6375 88.0117 57.5852 87.8712C57.5329 87.7313 57.5068 87.5855 57.5068 87.4349C57.5068 87.2843 57.5329 87.1382 57.5852 86.9955C57.6375 86.8533 57.7128 86.728 57.8111 86.619C57.9094 86.5101 58.0286 86.4232 58.169 86.3586C58.309 86.2939 58.4649 86.2611 58.6363 86.2611C58.8077 86.2611 58.9637 86.2935 59.1041 86.3586C59.244 86.4237 59.3623 86.5101 59.4589 86.619C59.555 86.728 59.6294 86.8533 59.6817 86.9955C59.7339 87.1377 59.7601 87.2843 59.7601 87.4349C59.7601 87.5855 59.7339 87.7308 59.6817 87.8712Z" fill="black"/>
<path d="M69.9339 86.2487C69.7833 86.0981 69.6065 85.9798 69.4037 85.8939C69.2008 85.8084 68.9842 85.7655 68.7543 85.7655C68.524 85.7655 68.3078 85.8084 68.1049 85.8939C67.9021 85.9798 67.7253 86.0977 67.5747 86.2487C67.4241 86.3993 67.305 86.5761 67.2168 86.7789C67.1291 86.9818 67.0848 87.2006 67.0848 87.4349C67.0848 87.6653 67.1287 87.8805 67.2168 88.0812C67.3045 88.2819 67.4241 88.4577 67.5747 88.6083C67.7253 88.7589 67.9021 88.8781 68.1049 88.9662C68.3078 89.0539 68.5244 89.0982 68.7543 89.0982C68.9842 89.0982 69.2008 89.0544 69.4037 88.9662C69.6065 88.8785 69.7833 88.7589 69.9339 88.6083C70.0845 88.4577 70.2036 88.2819 70.2918 88.0812C70.3795 87.8805 70.4238 87.6648 70.4238 87.4349C70.4238 87.2006 70.3799 86.9822 70.2918 86.7789C70.2036 86.5761 70.0845 86.3993 69.9339 86.2487ZM69.7988 87.8712C69.7465 88.0117 69.6721 88.1361 69.576 88.2446C69.4799 88.3536 69.3616 88.4404 69.2212 88.5051C69.0808 88.5702 68.9253 88.6026 68.7534 88.6026C68.582 88.6026 68.4261 88.5702 68.2861 88.5051C68.1457 88.4404 68.0265 88.3536 67.9282 88.2446C67.8299 88.1361 67.7546 88.0117 67.7023 87.8712C67.65 87.7313 67.6239 87.5855 67.6239 87.4349C67.6239 87.2843 67.65 87.1382 67.7023 86.9955C67.7546 86.8533 67.8299 86.728 67.9282 86.619C68.0265 86.5101 68.1457 86.4232 68.2861 86.3586C68.4261 86.2939 68.582 86.2611 68.7534 86.2611C68.9248 86.2611 69.0808 86.2935 69.2212 86.3586C69.3612 86.4237 69.4794 86.5101 69.576 86.619C69.6721 86.728 69.7465 86.8533 69.7988 86.9955C69.8511 87.1377 69.8772 87.2843 69.8772 87.4349C69.8772 87.5855 69.8511 87.7308 69.7988 87.8712Z" fill="black"/>
<path d="M79.9821 86.3366C79.8647 86.1607 79.7123 86.0216 79.5241 85.9193C79.3358 85.817 79.0975 85.7656 78.8087 85.7656C78.5784 85.7656 78.3653 85.8095 78.1687 85.8976C77.972 85.9853 77.8023 86.1049 77.6602 86.2555C77.518 86.4061 77.4059 86.5829 77.3244 86.7857C77.2429 86.9886 77.2021 87.2074 77.2021 87.4417C77.2021 87.6676 77.2429 87.8811 77.3244 88.0818C77.4059 88.2825 77.518 88.4583 77.6602 88.6089C77.8023 88.7595 77.972 88.8787 78.1687 88.9668C78.3653 89.0545 78.5788 89.0988 78.8087 89.0988C79.0975 89.0988 79.3358 89.0487 79.5241 88.9482C79.7123 88.8477 79.8652 88.7099 79.9821 88.534V89.0426H80.484V84.5231H79.9821V86.3366ZM79.9821 87.6986C79.9613 87.824 79.9192 87.9414 79.8567 88.0499C79.7938 88.1589 79.7146 88.2537 79.6184 88.3356C79.5223 88.4171 79.4111 88.4822 79.2858 88.5301C79.1604 88.5783 79.0222 88.6023 78.8716 88.6023C78.6958 88.6023 78.5368 88.5699 78.3946 88.5048C78.2524 88.4401 78.1332 88.3542 78.0367 88.2475C77.9405 88.1407 77.8661 88.0176 77.8139 87.8772C77.7616 87.7372 77.7355 87.5915 77.7355 87.4409C77.7355 87.2863 77.7616 87.1374 77.8139 86.9952C77.8661 86.8531 77.9405 86.7277 78.0367 86.6187C78.1328 86.5098 78.2519 86.423 78.3946 86.3583C78.5368 86.2936 78.6958 86.2608 78.8716 86.2608C79.0138 86.2608 79.1476 86.283 79.2734 86.3268C79.3987 86.3707 79.5099 86.4336 79.606 86.5151C79.7021 86.5966 79.7828 86.6949 79.8479 86.8101C79.9125 86.9253 79.9577 87.0519 79.983 87.1897V87.6986H79.9821Z" fill="black"/>
<path d="M98.2263 87.0678C98.0841 86.9863 97.9251 86.9234 97.7493 86.8795C97.5734 86.8357 97.3975 86.7949 97.2221 86.7573C97.08 86.7241 96.9426 86.6895 96.8111 86.6536C96.6791 86.6182 96.563 86.5721 96.4629 86.5154C96.3624 86.4587 96.2831 86.3879 96.2246 86.3019C96.1661 86.2164 96.1369 86.1084 96.1369 85.9786C96.1369 85.7567 96.2193 85.5844 96.385 85.4608C96.5502 85.3376 96.7686 85.2756 97.041 85.2756C97.2084 85.2756 97.3524 85.2964 97.4737 85.3385C97.5951 85.3806 97.6956 85.436 97.7749 85.5051C97.8542 85.5742 97.914 85.6526 97.9539 85.7403C97.9938 85.828 98.0155 85.9184 98.0199 86.01H98.6161C98.6077 85.8218 98.5669 85.6521 98.4938 85.5015C98.4208 85.3509 98.318 85.2212 98.1864 85.1122C98.0549 85.0037 97.8954 84.9199 97.7094 84.861C97.5233 84.8026 97.3129 84.7733 97.0786 84.7733C96.6056 84.7733 96.2366 84.8792 95.9708 85.09C95.705 85.3013 95.5722 85.5972 95.5722 85.9782C95.5722 86.2165 95.616 86.41 95.7037 86.5589C95.7914 86.7072 95.9066 86.8255 96.0488 86.9137C96.191 87.0014 96.35 87.0687 96.5258 87.1143C96.7017 87.1604 96.8771 87.202 97.0529 87.2397C97.1951 87.2689 97.3324 87.3003 97.464 87.3336C97.596 87.3672 97.712 87.4111 97.8121 87.4656C97.9127 87.52 97.992 87.5892 98.0509 87.6729C98.1094 87.7566 98.1386 87.8633 98.1386 87.9931C98.1386 88.1774 98.0527 88.3249 97.8812 88.4356C97.7098 88.5464 97.4755 88.6017 97.1783 88.6017C96.8647 88.6017 96.6122 88.5357 96.4222 88.4042C96.2317 88.2722 96.1179 88.0875 96.0802 87.8487H95.484C95.484 88.0414 95.5248 88.215 95.6063 88.3696C95.6878 88.5247 95.8029 88.6562 95.9513 88.7652C96.0997 88.8741 96.2787 88.9579 96.4877 89.0163C96.6968 89.0748 96.9311 89.104 97.1907 89.104C97.6841 89.104 98.0598 89.0004 98.3171 88.7935C98.5745 88.5867 98.7029 88.2965 98.7029 87.9245C98.7029 87.7025 98.6591 87.5249 98.5709 87.3912C98.4832 87.2569 98.368 87.1493 98.2263 87.0678Z" fill="black"/>
<path d="M109.771 87.9151C109.924 87.6201 110 87.295 110 86.9393C110 86.6421 109.944 86.3617 109.831 86.0982C109.718 85.8346 109.563 85.6047 109.366 85.408C109.17 85.2114 108.941 85.0563 108.679 84.9434C108.418 84.8304 108.136 84.7737 107.835 84.7737C107.537 84.7737 107.258 84.83 106.994 84.9434C106.73 85.0563 106.5 85.2114 106.303 85.408C106.107 85.6047 105.952 85.8346 105.839 86.0982C105.726 86.3617 105.67 86.6421 105.67 86.9393C105.67 87.2405 105.726 87.5222 105.839 87.7836C105.952 88.0449 106.106 88.2744 106.303 88.471C106.5 88.6677 106.73 88.8223 106.994 88.9352C107.257 89.0482 107.537 89.1049 107.835 89.1049C107.989 89.1049 108.139 89.0889 108.283 89.0579C108.428 89.0265 108.567 88.9818 108.701 88.9228L109.228 89.5377H109.893L109.152 88.6588C109.412 88.4578 109.618 88.2101 109.771 87.9151ZM108.456 88.4422C108.264 88.5282 108.057 88.5707 107.835 88.5707C107.617 88.5707 107.411 88.5277 107.216 88.4422C107.022 88.3563 106.851 88.2394 106.705 88.091C106.558 87.9426 106.443 87.769 106.36 87.5701C106.276 87.3716 106.234 87.1612 106.234 86.9393C106.234 86.7174 106.276 86.5074 106.36 86.3086C106.443 86.1101 106.559 85.936 106.705 85.7877C106.851 85.6393 107.021 85.5219 107.216 85.436C107.411 85.3505 107.617 85.3075 107.835 85.3075C108.057 85.3075 108.263 85.3505 108.456 85.436C108.648 85.5219 108.818 85.6388 108.965 85.7877C109.111 85.936 109.226 86.1097 109.31 86.3086C109.393 86.5074 109.435 86.7174 109.435 86.9393C109.435 87.1612 109.393 87.3712 109.31 87.5701C109.226 87.769 109.111 87.9426 108.965 88.091C108.818 88.2394 108.648 88.3563 108.456 88.4422Z" fill="black"/>
<path d="M29.4112 27.426C30.34 27.426 31.1192 26.7111 31.1825 25.7849C32.0286 13.3837 42.3878 3.55289 54.9999 3.55289C67.612 3.55289 77.9712 13.3837 78.8172 25.7849C78.8806 26.7116 79.6597 27.426 80.5886 27.426C81.6198 27.426 82.4313 26.5508 82.3613 25.5218C81.9112 18.9126 79.1215 12.7613 74.3926 8.03243C69.2429 2.88271 62.2824 0 54.9999 0C47.674 0 40.787 2.85259 35.6067 8.03287C30.8787 12.7609 28.0894 18.9112 27.6385 25.5196C27.5685 26.5494 28.3787 27.426 29.4112 27.426Z" fill="black"/>
<path d="M24.9944 31.429V31.5317V41.0099V43.7491V47.2068V47.3095C24.9944 48.2335 25.7434 48.9821 26.667 48.9821H33.65V47.2068V38.4178V35.3836V31.5322V29.7568H26.667C25.743 29.7564 24.9944 30.5054 24.9944 31.429Z" fill="black"/>
<path d="M19.7145 33.2478V45.4909C19.7145 46.4383 20.4825 47.2068 21.4305 47.2068H23.6802V31.5322H21.4305C20.4825 31.5318 19.7145 32.2999 19.7145 33.2478Z" fill="black"/>
<path d="M83.333 29.7565H76.3499V31.5318H76.3397V47.2064H76.3499V48.9817H83.333C84.257 48.9817 85.0056 48.2327 85.0056 47.3092V38.4174H84.9954V35.3832H85.0056V31.429C85.0056 30.5055 84.257 29.7565 83.333 29.7565Z" fill="black"/>
<path d="M88.5699 31.5318H86.3202V47.2064H88.5699C89.5174 47.2064 90.2859 46.4384 90.2859 45.4905V33.2474C90.2855 32.2999 89.5174 31.5318 88.5699 31.5318Z" fill="black"/>
<path d="M37.3335 44.3367C37.0469 44.3367 36.8143 44.1041 36.8143 43.8175V34.9347C36.8143 34.6481 37.0469 34.4155 37.3335 34.4155C37.6201 34.4155 37.8526 34.6481 37.8526 34.9347V43.8171C37.8526 44.1041 37.6201 44.3367 37.3335 44.3367Z" fill="black"/>
<path d="M39.9652 44.0898C39.6786 44.0898 39.446 43.8572 39.446 43.5706V35.1816C39.446 34.8951 39.6786 34.6625 39.9652 34.6625C40.2518 34.6625 40.4843 34.8951 40.4843 35.1816V43.5706C40.4843 43.8572 40.2522 44.0898 39.9652 44.0898Z" fill="black"/>
<path d="M42.4325 48.1197C42.1459 48.1197 41.9133 47.8871 41.9133 47.6005V31.1516C41.9133 30.8651 42.1459 30.6325 42.4325 30.6325C42.7191 30.6325 42.9516 30.8651 42.9516 31.1516V47.6005C42.9516 47.8871 42.7191 48.1197 42.4325 48.1197Z" fill="black"/>
<path d="M45.0476 45.1781C44.761 45.1781 44.5284 44.9456 44.5284 44.659V34.0929C44.5284 33.8063 44.761 33.5738 45.0476 33.5738C45.3342 33.5738 45.5667 33.8063 45.5667 34.0929V44.6586C45.5667 44.9456 45.3342 45.1781 45.0476 45.1781Z" fill="black"/>
<path d="M47.679 46.1456C47.3925 46.1456 47.1599 45.9131 47.1599 45.6265V33.1252C47.1599 32.8386 47.3925 32.606 47.679 32.606C47.9656 32.606 48.1982 32.8386 48.1982 33.1252V45.6265C48.1982 45.9135 47.9661 46.1456 47.679 46.1456Z" fill="black"/>
<path d="M50.2936 45.9453C50.007 45.9453 49.7744 45.7127 49.7744 45.4261V33.3252C49.7744 33.0386 50.007 32.8061 50.2936 32.8061C50.5801 32.8061 50.8127 33.0386 50.8127 33.3252V45.4261C50.8127 45.7132 50.5806 45.9453 50.2936 45.9453Z" fill="black"/>
<path d="M52.5808 42.8971C52.2942 42.8971 52.0616 42.6646 52.0616 42.378V36.3743C52.0616 36.0877 52.2942 35.8551 52.5808 35.8551C52.8674 35.8551 53.0999 36.0877 53.0999 36.3743V42.378C53.0999 42.665 52.8674 42.8971 52.5808 42.8971Z" fill="black"/>
<path d="M56.7105 43.3043C56.424 43.3043 56.1914 43.0718 56.1914 42.7852V35.9673C56.1914 35.6807 56.424 35.4482 56.7105 35.4482C56.9971 35.4482 57.2297 35.6807 57.2297 35.9673V42.7852C57.2297 43.0718 56.9971 43.3043 56.7105 43.3043Z" fill="black"/>
<path d="M54.7398 47.81C54.4533 47.81 54.2207 47.5774 54.2207 47.2908V31.4616C54.2207 31.175 54.4533 30.9425 54.7398 30.9425C55.0264 30.9425 55.259 31.175 55.259 31.4616V47.2908C55.259 47.5779 55.0264 47.81 54.7398 47.81Z" fill="black"/>
<path d="M61.4807 45.7348C61.1941 45.7348 60.9615 45.5022 60.9615 45.2157V33.5369C60.9615 33.2503 61.1941 33.0177 61.4807 33.0177C61.7673 33.0177 61.9998 33.2503 61.9998 33.5369V45.2157C61.9998 45.5022 61.7677 45.7348 61.4807 45.7348Z" fill="black"/>
<path d="M59.1776 45.4881C58.891 45.4881 58.6584 45.2556 58.6584 44.969V33.7836C58.6584 33.4971 58.891 33.2645 59.1776 33.2645C59.4642 33.2645 59.6967 33.4971 59.6967 33.7836V44.969C59.6972 45.2556 59.4646 45.4881 59.1776 45.4881Z" fill="black"/>
<path d="M64.1106 46.804C63.824 46.804 63.5914 46.5715 63.5914 46.2849V32.4676C63.5914 32.181 63.824 31.9484 64.1106 31.9484C64.3972 31.9484 64.6297 32.181 64.6297 32.4676V46.2849C64.6297 46.5715 64.3972 46.804 64.1106 46.804Z" fill="black"/>
<path d="M66.6422 46.9055C66.3556 46.9055 66.123 46.6729 66.123 46.3863V32.3666C66.123 32.08 66.3556 31.8474 66.6422 31.8474C66.9288 31.8474 67.1613 32.08 67.1613 32.3666V46.3863C67.1613 46.6729 66.9288 46.9055 66.6422 46.9055Z" fill="black"/>
<path d="M69.5389 43.011C69.2523 43.011 69.0198 42.7785 69.0198 42.4919V36.2605C69.0198 35.9739 69.2523 35.7413 69.5389 35.7413C69.8255 35.7413 70.058 35.9739 70.058 36.2605V42.4919C70.058 42.7785 69.8255 43.011 69.5389 43.011Z" fill="black"/>
<path d="M72.6633 43.3495C72.3767 43.3495 72.1442 43.1169 72.1442 42.8303V35.9217C72.1442 35.6351 72.3767 35.4025 72.6633 35.4025C72.9499 35.4025 73.1824 35.6351 73.1824 35.9217V42.8303C73.1824 43.1174 72.9503 43.3495 72.6633 43.3495Z" fill="black"/>
<path d="M32.9244 75.2526C32.9244 75.8138 32.7277 76.29 32.3357 76.6824C31.9428 77.0753 31.4662 77.2711 30.9058 77.2711C30.3446 77.2711 29.8685 77.0753 29.476 76.6824C29.0831 76.29 28.8873 75.8138 28.8873 75.2526V74.2857C28.859 73.4445 28.6628 72.7508 28.2986 72.2042C27.9341 71.6576 27.4996 71.2306 26.9951 70.9219C26.4905 70.6136 25.9439 70.4037 25.3553 70.2911C24.7666 70.1795 24.2337 70.1228 23.7575 70.1228H16.6092H16.483H16.3147H9.16682C8.29775 70.1228 7.4216 70.0112 6.53881 69.7866C5.65557 69.5625 4.82149 69.2263 4.03703 68.7776V75.253C4.03703 75.8143 3.84036 76.2904 3.44835 76.6829C3.05546 77.0758 2.57929 77.2716 2.01852 77.2716C1.4573 77.2716 0.98113 77.0758 0.588678 76.6829C0.195782 76.2904 0 75.8143 0 75.253V60.9565C0 60.3961 0.195782 59.9195 0.588678 59.5266C0.980687 59.1342 1.4573 58.9379 2.01852 58.9379C2.57885 58.9379 3.05546 59.1342 3.44835 59.5266C3.84036 59.9195 4.03703 60.3957 4.03703 60.9565V61.6714C4.03703 62.5688 4.212 63.305 4.56281 63.879C4.91274 64.454 5.34727 64.9027 5.86641 65.2247C6.38466 65.5472 6.93879 65.7713 7.52747 65.8975C8.11615 66.0238 8.66274 66.0867 9.16726 66.0867H16.4418H16.4839H16.6101H23.7584C24.627 66.0867 25.5032 66.1992 26.3864 66.4229C27.2697 66.6475 28.1033 66.9841 28.8887 67.4319V60.9565C28.8887 60.3961 29.0844 59.9195 29.4773 59.5266C29.8693 59.1342 30.346 58.9379 30.9072 58.9379C31.4675 58.9379 31.9441 59.1342 32.337 59.5266C32.729 59.9195 32.9257 60.3957 32.9257 60.9565V75.2526H32.9244Z" fill="black"/>
<path d="M40.5777 69.6807C39.9048 69.3861 39.3161 68.987 38.8116 68.4825C38.3071 67.978 37.9076 67.3893 37.613 66.7165C37.3184 66.0436 37.1714 65.315 37.1714 64.5297C37.1714 63.7452 37.3184 63.0161 37.613 62.3433C37.9076 61.6704 38.3067 61.0817 38.8116 60.5772C39.3161 60.0727 39.9048 59.6732 40.5777 59.3786C41.2505 59.084 41.9791 58.937 42.7641 58.937H68.2881C68.8484 58.937 69.325 59.1332 69.7179 59.5257C70.1099 59.9186 70.3066 60.3947 70.3066 60.9555C70.3066 61.5167 70.1099 61.9929 69.7179 62.3853C69.325 62.7782 68.8488 62.974 68.2881 62.974H42.6799C42.2595 62.974 41.8875 63.1211 41.5654 63.4156C41.243 63.7102 41.0817 64.0818 41.0817 64.5301C41.0817 64.9505 41.2425 65.3154 41.5654 65.6233C41.8875 65.932 42.2591 66.0857 42.6799 66.0857H65.9329C66.7174 66.0857 67.4531 66.2328 68.1406 66.5273C68.8271 66.8219 69.4229 67.221 69.9278 67.726C70.4324 68.2305 70.8319 68.8262 71.126 69.5133C71.4206 70.2007 71.5676 70.9365 71.5676 71.7209C71.5676 72.5063 71.4206 73.2349 71.126 73.9073C70.8315 74.5802 70.4324 75.1688 69.9278 75.6733C69.4233 76.1779 68.8276 76.5708 68.1406 76.8507C67.4531 77.1311 66.7174 77.2711 65.9329 77.2711H40.451C39.8898 77.2711 39.4136 77.0753 39.0211 76.6824C38.6282 76.2899 38.4325 75.8138 38.4325 75.2525C38.4325 74.6922 38.6282 74.2156 39.0211 73.8227C39.4136 73.4303 39.8898 73.234 40.451 73.234H66.1008C66.5211 73.234 66.8852 73.087 67.194 72.7924C67.5018 72.4978 67.6564 72.1408 67.6564 71.72C67.6564 71.2718 67.5018 70.8935 67.194 70.5848C66.8852 70.2765 66.5211 70.1223 66.1008 70.1223H42.7636C41.9791 70.1223 41.2505 69.9748 40.5777 69.6807Z" fill="black"/>
<path d="M109.496 64.95C109.16 63.8852 108.676 62.9178 108.045 62.0487C107.415 61.1801 106.65 60.4581 105.754 59.8831C104.856 59.3091 103.833 58.9937 102.684 58.937H83.5095C82.3038 58.937 81.2244 59.2174 80.2716 59.7781C79.3183 60.3394 78.5055 61.0605 77.8327 61.9437C77.1599 62.827 76.6483 63.8085 76.2979 64.8871C75.9471 65.9666 75.7721 67.0389 75.7721 68.1038C75.7721 69.1412 75.9404 70.1923 76.2766 71.2576C76.6133 72.3233 77.0965 73.2903 77.7273 74.1589C78.358 75.028 79.1212 75.75 80.0191 76.3245C80.9161 76.8994 81.9388 77.2148 83.0887 77.2706H93.0542C93.6145 77.2706 94.0911 77.0748 94.484 76.6819C94.876 76.2895 95.0727 75.8133 95.0727 75.2521C95.0727 74.6918 94.876 74.2151 94.484 73.8223C94.0911 73.4298 93.6145 73.2336 93.0542 73.2336H84.3919C83.4103 73.2336 82.6187 73.0586 82.0159 72.7078C81.4126 72.3574 80.9364 71.93 80.5865 71.4255C80.2357 70.9209 79.9978 70.3677 79.8716 69.7644C79.7453 69.162 79.6824 68.6079 79.6824 68.1034C79.6824 67.5988 79.7453 67.0456 79.8716 66.4423C79.9978 65.8399 80.2357 65.2858 80.5865 64.7812C80.9364 64.2767 81.413 63.8497 82.0159 63.4989C82.6183 63.1485 83.4103 62.9731 84.3919 62.9731H101.38C102.333 62.9731 103.118 63.1485 103.735 63.4989C104.351 63.8497 104.834 64.2767 105.185 64.7812C105.535 65.2858 105.774 65.8399 105.9 66.4423C106.026 67.0456 106.089 67.5988 106.089 68.1034C106.089 68.6079 106.026 69.1616 105.9 69.7644C105.774 70.3677 105.536 70.9209 105.185 71.4255C104.834 71.93 104.351 72.3579 103.735 72.7078C103.118 73.0586 102.333 73.2336 101.38 73.2336C100.819 73.2336 100.342 73.4298 99.9504 73.8223C99.5575 74.2151 99.3618 74.6913 99.3618 75.2521C99.3618 75.8133 99.5575 76.2895 99.9504 76.6819C100.342 77.0748 100.819 77.2706 101.38 77.2706H102.263C103.468 77.2706 104.547 76.9907 105.501 76.4294C106.453 75.8691 107.267 75.1471 107.939 74.2639C108.612 73.3806 109.123 72.3999 109.474 71.3205C109.825 70.2415 110 69.1695 110 68.1038C110 67.0668 109.833 66.0157 109.496 64.95Z" fill="black"/>
<path d="M97.2167 82.4845C98.6566 82.4845 99.8239 81.3172 99.8239 79.8773C99.8239 78.4374 98.6566 77.2701 97.2167 77.2701C95.7768 77.2701 94.6095 78.4374 94.6095 79.8773C94.6095 81.3172 95.7768 82.4845 97.2167 82.4845Z" fill="black"/>
</svg>
