<svg width="214" height="149" viewBox="0 0 214 149" fill="none" xmlns="http://www.w3.org/2000/svg">
<path d="M29.3865 83.1247C32.2018 83.1247 34.5633 80.9579 34.7553 78.1507C37.3195 40.5642 68.717 10.7683 106.943 10.7683C145.168 10.7683 176.566 40.5642 179.13 78.1507C179.322 80.9593 181.683 83.1247 184.499 83.1247C187.624 83.1247 190.084 80.4719 189.871 77.3532C188.507 57.3215 180.052 38.678 165.719 24.3452C150.111 8.73712 129.015 0 106.943 0C84.7386 0 63.8651 8.64582 48.1644 24.3466C33.8343 38.6766 25.3804 57.3175 24.0138 77.3465C23.8016 80.4679 26.2571 83.1247 29.3865 83.1247Z" fill="white"/>
<path d="M16.0018 95.2574V95.5689V124.296V132.598V143.078V143.389C16.0018 146.19 18.272 148.459 21.0712 148.459H42.236V143.078V116.44V107.243V95.5702V90.1894H21.0712C18.2707 90.1881 16.0018 92.4582 16.0018 95.2574Z" fill="white"/>
<path d="M0 100.769V137.876C0 140.748 2.32793 143.077 5.20092 143.077H12.0196V95.5696H5.20092C2.32793 95.5682 0 97.8962 0 100.769Z" fill="white"/>
<path d="M192.821 90.1884H171.656V95.5692H171.625V143.077H171.656V148.458H192.821C195.622 148.458 197.891 146.187 197.891 143.388V116.439H197.86V107.242H197.891V95.2577C197.891 92.4586 195.622 90.1884 192.821 90.1884Z" fill="white"/>
<path d="M208.689 95.5685H201.87V143.076H208.689C211.561 143.076 213.89 140.748 213.89 137.875V100.768C213.889 97.8964 211.561 95.5685 208.689 95.5685Z" fill="white"/>
<path d="M53.3972 134.378C52.5285 134.378 51.8237 133.674 51.8237 132.805V105.882C51.8237 105.013 52.5285 104.309 53.3972 104.309C54.2658 104.309 54.9706 105.013 54.9706 105.882V132.804C54.9706 133.674 54.2658 134.378 53.3972 134.378Z" fill="white"/>
<path d="M61.3774 133.63C60.5088 133.63 59.804 132.925 59.804 132.056V106.63C59.804 105.762 60.5088 105.057 61.3774 105.057C62.246 105.057 62.9508 105.762 62.9508 106.63V132.056C62.9508 132.925 62.2473 133.63 61.3774 133.63Z" fill="white"/>
<path d="M68.855 145.845C67.9864 145.845 67.2816 145.14 67.2816 144.271V94.4168C67.2816 93.5482 67.9864 92.8434 68.855 92.8434C69.7237 92.8434 70.4285 93.5482 70.4285 94.4168V144.271C70.4285 145.14 69.7237 145.845 68.855 145.845Z" fill="white"/>
<path d="M76.7812 136.929C75.9126 136.929 75.2078 136.224 75.2078 135.356V103.331C75.2078 102.463 75.9126 101.758 76.7812 101.758C77.6498 101.758 78.3546 102.463 78.3546 103.331V135.355C78.3546 136.224 77.6498 136.929 76.7812 136.929Z" fill="white"/>
<path d="M84.7562 139.862C83.8876 139.862 83.1827 139.157 83.1827 138.288V100.398C83.1827 99.5296 83.8876 98.8248 84.7562 98.8248C85.6248 98.8248 86.3296 99.5296 86.3296 100.398V138.288C86.3296 139.158 85.6261 139.862 84.7562 139.862Z" fill="white"/>
<path d="M92.6811 139.253C91.8125 139.253 91.1077 138.549 91.1077 137.68V101.004C91.1077 100.135 91.8125 99.4304 92.6811 99.4304C93.5497 99.4304 94.2545 100.135 94.2545 101.004V137.68C94.2545 138.55 93.5511 139.253 92.6811 139.253Z" fill="white"/>
<path d="M99.6162 130.016C98.7476 130.016 98.0427 129.311 98.0427 128.443V110.246C98.0427 109.377 98.7476 108.673 99.6162 108.673C100.485 108.673 101.19 109.377 101.19 110.246V128.443C101.19 129.313 100.485 130.016 99.6162 130.016Z" fill="white"/>
<path d="M112.131 131.25C111.262 131.25 110.557 130.545 110.557 129.677V109.013C110.557 108.144 111.262 107.439 112.131 107.439C112.999 107.439 113.704 108.144 113.704 109.013V129.677C113.704 130.545 112.999 131.25 112.131 131.25Z" fill="white"/>
<path d="M106.163 144.906C105.294 144.906 104.589 144.201 104.589 143.332V95.3559C104.589 94.4873 105.294 93.7825 106.163 93.7825C107.032 93.7825 107.736 94.4873 107.736 95.3559V143.332C107.736 144.202 107.032 144.906 106.163 144.906Z" fill="white"/>
<path d="M126.587 138.616C125.718 138.616 125.014 137.911 125.014 137.043V101.646C125.014 100.777 125.718 100.073 126.587 100.073C127.456 100.073 128.161 100.777 128.161 101.646V137.043C128.161 137.911 127.457 138.616 126.587 138.616Z" fill="white"/>
<path d="M119.611 137.868C118.742 137.868 118.037 137.164 118.037 136.295V102.394C118.037 101.525 118.742 100.82 119.611 100.82C120.479 100.82 121.184 101.525 121.184 102.394V136.295C121.185 137.164 120.481 137.868 119.611 137.868Z" fill="white"/>
<path d="M134.562 141.857C133.693 141.857 132.989 141.152 132.989 140.284V98.4053C132.989 97.5367 133.693 96.8318 134.562 96.8318C135.431 96.8318 136.136 97.5367 136.136 98.4053V140.284C136.136 141.152 135.431 141.857 134.562 141.857Z" fill="white"/>
<path d="M142.236 142.165C141.367 142.165 140.662 141.461 140.662 140.592V98.0998C140.662 97.2312 141.367 96.5264 142.236 96.5264C143.105 96.5264 143.809 97.2312 143.809 98.0998V140.592C143.809 141.461 143.105 142.165 142.236 142.165Z" fill="white"/>
<path d="M151.01 130.361C150.142 130.361 149.437 129.656 149.437 128.787V109.901C149.437 109.032 150.142 108.327 151.01 108.327C151.879 108.327 152.584 109.032 152.584 109.901V128.787C152.584 129.656 151.879 130.361 151.01 130.361Z" fill="white"/>
<path d="M160.486 131.386C159.617 131.386 158.913 130.682 158.913 129.813V108.874C158.913 108.005 159.617 107.3 160.486 107.3C161.355 107.3 162.059 108.005 162.059 108.874V129.813C162.059 130.683 161.356 131.386 160.486 131.386Z" fill="white"/>
</svg>
