<svg width="67" height="50" viewBox="0 0 67 50" fill="none" xmlns="http://www.w3.org/2000/svg">
<path d="M17.8283 16.6249C18.3914 16.6249 18.8637 16.1916 18.9021 15.6301C19.4149 8.11284 25.6944 2.15367 33.3395 2.15367C40.9847 2.15367 47.2642 8.11284 47.777 15.6301C47.8154 16.1919 48.2877 16.6249 48.8507 16.6249C49.4758 16.6249 49.9677 16.0944 49.9253 15.4707C49.6525 11.4643 47.9615 7.73559 45.0949 4.86905C41.9733 1.74742 37.754 0 33.3395 0C28.8988 0 24.7241 1.72916 21.5839 4.86932C18.7179 7.73532 17.0271 11.4635 16.7538 15.4693C16.7114 16.0936 17.2024 16.6249 17.8283 16.6249Z" fill="white"/>
<path d="M15.1509 19.0514V19.1137V24.8592V26.5196V28.6155V28.6778C15.1509 29.2379 15.6049 29.6917 16.1647 29.6917H20.3977V28.6155V23.2879V21.4486V19.114V18.0378H16.1647C15.6046 18.0375 15.1509 18.4916 15.1509 19.0514Z" fill="white"/>
<path d="M11.9502 20.1539V27.5754C11.9502 28.1497 12.4158 28.6156 12.9904 28.6156H14.3541V19.114H12.9904C12.4158 19.1137 11.9502 19.5793 11.9502 20.1539Z" fill="white"/>
<path d="M50.5143 18.0376H46.2813V19.1138H46.2751V28.6153H46.2813V29.6915H50.5143C51.0744 29.6915 51.5282 29.2374 51.5282 28.6776V23.2877H51.522V21.4484H51.5282V19.0515C51.5282 18.4916 51.0744 18.0376 50.5143 18.0376Z" fill="white"/>
<path d="M53.6887 19.1138H52.325V28.6153H53.6887C54.263 28.6153 54.7289 28.1497 54.7289 27.5751V20.1537C54.7286 19.5794 54.263 19.1138 53.6887 19.1138Z" fill="white"/>
<path d="M22.6313 26.8759C22.4576 26.8759 22.3167 26.7349 22.3167 26.5612V21.1766C22.3167 21.0029 22.4576 20.8619 22.6313 20.8619C22.8051 20.8619 22.946 21.0029 22.946 21.1766V26.5609C22.946 26.7349 22.8051 26.8759 22.6313 26.8759Z" fill="white"/>
<path d="M24.2266 26.7263C24.0528 26.7263 23.9119 26.5853 23.9119 26.4116V21.3264C23.9119 21.1527 24.0528 21.0117 24.2266 21.0117C24.4003 21.0117 24.5412 21.1527 24.5412 21.3264V26.4116C24.5412 26.5853 24.4005 26.7263 24.2266 26.7263Z" fill="white"/>
<path d="M25.7224 29.169C25.5487 29.169 25.4077 29.0281 25.4077 28.8544V18.8835C25.4077 18.7098 25.5487 18.5688 25.7224 18.5688C25.8961 18.5688 26.0371 18.7098 26.0371 18.8835V28.8544C26.0371 29.0281 25.8961 29.169 25.7224 29.169Z" fill="white"/>
<path d="M27.3076 27.386C27.1339 27.386 26.9929 27.245 26.9929 27.0713V20.6664C26.9929 20.4927 27.1339 20.3517 27.3076 20.3517C27.4813 20.3517 27.6223 20.4927 27.6223 20.6664V27.071C27.6223 27.245 27.4813 27.386 27.3076 27.386Z" fill="white"/>
<path d="M28.9023 27.9724C28.7286 27.9724 28.5876 27.8315 28.5876 27.6577V20.0798C28.5876 19.906 28.7286 19.7651 28.9023 19.7651C29.0761 19.7651 29.217 19.906 29.217 20.0798V27.6577C29.217 27.8317 29.0763 27.9724 28.9023 27.9724Z" fill="white"/>
<path d="M30.4875 27.851C30.3138 27.851 30.1729 27.71 30.1729 27.5363V20.201C30.1729 20.0273 30.3138 19.8863 30.4875 19.8863C30.6613 19.8863 30.8022 20.0273 30.8022 20.201V27.5363C30.8022 27.7103 30.6615 27.851 30.4875 27.851Z" fill="white"/>
<path d="M31.8733 26.0032C31.6996 26.0032 31.5586 25.8622 31.5586 25.6885V22.0492C31.5586 21.8755 31.6996 21.7345 31.8733 21.7345C32.047 21.7345 32.188 21.8755 32.188 22.0492V25.6885C32.188 25.8625 32.047 26.0032 31.8733 26.0032Z" fill="white"/>
<path d="M34.3767 26.25C34.203 26.25 34.062 26.109 34.062 25.9353V21.8025C34.062 21.6288 34.203 21.4878 34.3767 21.4878C34.5504 21.4878 34.6914 21.6288 34.6914 21.8025V25.9353C34.6914 26.109 34.5504 26.25 34.3767 26.25Z" fill="white"/>
<path d="M33.1824 28.9812C33.0086 28.9812 32.8677 28.8402 32.8677 28.6665V19.0712C32.8677 18.8975 33.0086 18.7565 33.1824 18.7565C33.3561 18.7565 33.4971 18.8975 33.4971 19.0712V28.6665C33.4971 28.8405 33.3561 28.9812 33.1824 28.9812Z" fill="white"/>
<path d="M37.2681 27.7233C37.0943 27.7233 36.9534 27.5823 36.9534 27.4086V20.3292C36.9534 20.1555 37.0943 20.0146 37.2681 20.0146C37.4418 20.0146 37.5827 20.1555 37.5827 20.3292V27.4086C37.5827 27.5823 37.442 27.7233 37.2681 27.7233Z" fill="white"/>
<path d="M35.8723 27.5738C35.6986 27.5738 35.5576 27.4328 35.5576 27.2591V20.4788C35.5576 20.3051 35.6986 20.1641 35.8723 20.1641C36.046 20.1641 36.187 20.3051 36.187 20.4788V27.2591C36.1873 27.4328 36.0463 27.5738 35.8723 27.5738Z" fill="white"/>
<path d="M38.8625 28.3714C38.6888 28.3714 38.5479 28.2305 38.5479 28.0568V19.6811C38.5479 19.5073 38.6888 19.3664 38.8625 19.3664C39.0363 19.3664 39.1772 19.5073 39.1772 19.6811V28.0568C39.1772 28.2305 39.0363 28.3714 38.8625 28.3714Z" fill="white"/>
<path d="M40.397 28.4329C40.2232 28.4329 40.0823 28.2919 40.0823 28.1182V19.6198C40.0823 19.4461 40.2232 19.3051 40.397 19.3051C40.5707 19.3051 40.7116 19.4461 40.7116 19.6198V28.1182C40.7116 28.2919 40.5707 28.4329 40.397 28.4329Z" fill="white"/>
<path d="M42.1528 26.0722C41.9791 26.0722 41.8381 25.9312 41.8381 25.7575V21.9802C41.8381 21.8065 41.9791 21.6655 42.1528 21.6655C42.3265 21.6655 42.4675 21.8065 42.4675 21.9802V25.7575C42.4675 25.9312 42.3265 26.0722 42.1528 26.0722Z" fill="white"/>
<path d="M44.0469 26.2774C43.8731 26.2774 43.7322 26.1364 43.7322 25.9627V21.7748C43.7322 21.6011 43.8731 21.4601 44.0469 21.4601C44.2206 21.4601 44.3616 21.6011 44.3616 21.7748V25.9627C44.3616 26.1367 44.2209 26.2774 44.0469 26.2774Z" fill="white"/>
<path d="M19.9579 45.6163C19.9579 45.9565 19.8387 46.2451 19.601 46.483C19.3629 46.7212 19.074 46.8399 18.7343 46.8399C18.3941 46.8399 18.1055 46.7212 17.8676 46.483C17.6294 46.2451 17.5107 45.9565 17.5107 45.6163V45.0302C17.4936 44.5203 17.3746 44.0998 17.1539 43.7685C16.9329 43.4371 16.6695 43.1783 16.3637 42.9911C16.0579 42.8043 15.7265 42.677 15.3697 42.6088C15.0129 42.5411 14.6898 42.5068 14.4012 42.5068H10.0681H9.99156H9.88953H5.55669C5.02988 42.5068 4.49878 42.4391 3.96365 42.303C3.42826 42.1671 2.92266 41.9633 2.44714 41.6913V45.6166C2.44714 45.9568 2.32793 46.2454 2.0903 46.4833C1.85214 46.7215 1.5635 46.8401 1.22357 46.8401C0.883378 46.8401 0.594735 46.7215 0.356841 46.4833C0.118678 46.2454 0 45.9568 0 45.6166V36.9503C0 36.6107 0.118678 36.3218 0.356841 36.0836C0.594467 35.8457 0.883378 35.7268 1.22357 35.7268C1.56323 35.7268 1.85214 35.8457 2.0903 36.0836C2.32793 36.3218 2.44714 36.6104 2.44714 36.9503V37.3837C2.44714 37.9277 2.5532 38.374 2.76586 38.7219C2.97798 39.0705 3.24138 39.3424 3.55606 39.5377C3.87021 39.7331 4.20611 39.869 4.56295 39.9455C4.9198 40.022 5.25113 40.0602 5.55696 40.0602H9.96659H9.9921H10.0686H14.4017C14.9283 40.0602 15.4594 40.1284 15.9948 40.264C16.5302 40.4001 17.0355 40.6041 17.5116 40.8756V36.9503C17.5116 36.6107 17.6302 36.3218 17.8684 36.0836C18.106 35.8457 18.3949 35.7268 18.7351 35.7268C19.0748 35.7268 19.3637 35.8457 19.6019 36.0836C19.8395 36.3218 19.9587 36.6104 19.9587 36.9503V45.6163H19.9579Z" fill="white"/>
<path d="M24.597 42.2386C24.1892 42.0601 23.8323 41.8182 23.5265 41.5123C23.2207 41.2065 22.9785 40.8497 22.7999 40.4418C22.6214 40.034 22.5322 39.5923 22.5322 39.1162C22.5322 38.6407 22.6214 38.1987 22.7999 37.7909C22.9785 37.383 23.2204 37.0262 23.5265 36.7203C23.8323 36.4145 24.1892 36.1723 24.597 35.9938C25.0049 35.8152 25.4466 35.7261 25.9224 35.7261H41.3943C41.734 35.7261 42.0229 35.845 42.2611 36.0829C42.4987 36.3211 42.6179 36.6097 42.6179 36.9496C42.6179 37.2898 42.4987 37.5785 42.2611 37.8164C42.0229 38.0545 41.7343 38.1732 41.3943 38.1732H25.8713C25.6165 38.1732 25.391 38.2624 25.1958 38.4409C25.0003 38.6195 24.9026 38.8447 24.9026 39.1165C24.9026 39.3713 25 39.5925 25.1958 39.7791C25.391 39.9663 25.6163 40.0595 25.8713 40.0595H39.9667C40.4422 40.0595 40.8882 40.1486 41.3049 40.3272C41.7211 40.5057 42.0823 40.7476 42.3883 41.0537C42.6942 41.3596 42.9364 41.7207 43.1146 42.1371C43.2932 42.5539 43.3823 42.9998 43.3823 43.4754C43.3823 43.9514 43.2932 44.3931 43.1146 44.8007C42.9361 45.2086 42.6942 45.5654 42.3883 45.8712C42.0825 46.1771 41.7214 46.4152 41.3049 46.5849C40.8882 46.7549 40.4422 46.8397 39.9667 46.8397H24.5202C24.18 46.8397 23.8914 46.721 23.6535 46.4829C23.4153 46.245 23.2967 45.9563 23.2967 45.6161C23.2967 45.2765 23.4153 44.9876 23.6535 44.7494C23.8914 44.5115 24.18 44.3926 24.5202 44.3926H40.0685C40.3233 44.3926 40.544 44.3034 40.7311 44.1249C40.9178 43.9463 41.0115 43.7299 41.0115 43.4748C41.0115 43.2031 40.9178 42.9738 40.7311 42.7867C40.544 42.5998 40.3233 42.5063 40.0685 42.5063H25.9221C25.4466 42.5063 25.0049 42.4169 24.597 42.2386Z" fill="white"/>
<path d="M66.3737 39.371C66.1699 38.7255 65.8767 38.1391 65.4943 37.6123C65.112 37.0858 64.6488 36.6481 64.1051 36.2996C63.5611 35.9516 62.9409 35.7604 62.2444 35.7261H50.6214C49.8905 35.7261 49.2362 35.896 48.6586 36.236C48.0808 36.5762 47.5881 37.0133 47.1802 37.5487C46.7724 38.0841 46.4623 38.6791 46.2499 39.3329C46.0372 39.9872 45.9312 40.6373 45.9312 41.2828C45.9312 41.9116 46.0332 42.5488 46.237 43.1945C46.441 43.8405 46.734 44.4267 47.1163 44.9532C47.4987 45.48 47.9613 45.9177 48.5056 46.2659C49.0493 46.6144 49.6693 46.8056 50.3663 46.8394H56.4071C56.7468 46.8394 57.0357 46.7208 57.2738 46.4826C57.5115 46.2447 57.6307 45.9561 57.6307 45.6159C57.6307 45.2762 57.5115 44.9873 57.2738 44.7491C57.0357 44.5112 56.7468 44.3923 56.4071 44.3923H51.1562C50.5612 44.3923 50.0814 44.2862 49.716 44.0736C49.3503 43.8612 49.0616 43.6021 48.8495 43.2963C48.6369 42.9904 48.4927 42.6551 48.4162 42.2894C48.3396 41.9242 48.3015 41.5883 48.3015 41.2825C48.3015 40.9767 48.3396 40.6413 48.4162 40.2756C48.4927 39.9104 48.6369 39.5745 48.8495 39.2687C49.0616 38.9629 49.3505 38.704 49.716 38.4914C50.0811 38.279 50.5612 38.1727 51.1562 38.1727H61.4539C62.0314 38.1727 62.5072 38.279 62.8813 38.4914C63.2548 38.704 63.548 38.9629 63.7606 39.2687C63.9727 39.5745 64.1175 39.9104 64.194 40.2756C64.2702 40.6413 64.3086 40.9767 64.3086 41.2825C64.3086 41.5883 64.2705 41.9239 64.194 42.2894C64.1175 42.6551 63.973 42.9904 63.7606 43.2963C63.548 43.6021 63.2548 43.8615 62.8813 44.0736C62.5072 44.2862 62.0314 44.3923 61.4539 44.3923C61.1137 44.3923 60.8251 44.5112 60.5874 44.7491C60.3493 44.9873 60.2306 45.2759 60.2306 45.6159C60.2306 45.9561 60.3493 46.2447 60.5874 46.4826C60.8251 46.7208 61.114 46.8394 61.4539 46.8394H61.9893C62.7196 46.8394 63.374 46.6697 63.9518 46.3296C64.5293 45.9899 65.0223 45.5522 65.4302 45.0168C65.838 44.4814 66.1479 43.887 66.3605 43.2326C66.5729 42.5786 66.6792 41.9288 66.6792 41.2828C66.6795 40.6542 66.5778 40.017 66.3737 39.371Z" fill="white"/>
<path d="M58.9303 49.9999C59.8031 49.9999 60.5107 49.2924 60.5107 48.4195C60.5107 47.5467 59.8031 46.8391 58.9303 46.8391C58.0574 46.8391 57.3499 47.5467 57.3499 48.4195C57.3499 49.2924 58.0574 49.9999 58.9303 49.9999Z" fill="white"/>
</svg>
