<svg width="20" height="23" viewBox="0 0 20 23" fill="none" xmlns="http://www.w3.org/2000/svg">
<path d="M19.1412 16.4782C18.2996 15.5738 16.7248 14.2133 16.7248 9.75681C16.7248 6.37195 14.3515 3.66233 11.1513 2.99755V2.0897C11.1513 1.31994 10.5275 0.695679 9.75818 0.695679C8.98885 0.695679 8.36503 1.31994 8.36503 2.0897V2.99755C5.16488 3.66233 2.79156 6.37195 2.79156 9.75681C2.79156 14.2133 1.21675 15.5738 0.375109 16.4782C0.11373 16.7591 -0.00214804 17.095 3.01191e-05 17.4239C0.00482207 18.1384 0.56548 18.8179 1.39841 18.8179H18.1179C18.9509 18.8179 19.512 18.1384 19.5163 17.4239C19.5185 17.095 19.4026 16.7587 19.1412 16.4782ZM2.94185 16.7269C3.86626 15.5085 4.87693 13.4889 4.88172 9.78208C4.88172 9.77336 4.8791 9.76552 4.8791 9.75681C4.8791 7.06199 7.06336 4.87774 9.75818 4.87774C12.453 4.87774 14.6373 7.06199 14.6373 9.75681C14.6373 9.76552 14.6346 9.77336 14.6346 9.78208C14.6394 13.4893 15.6501 15.5089 16.5745 16.7269H2.94185ZM9.75818 23C11.2968 23 12.5449 21.7519 12.5449 20.212H6.97144C6.97144 21.7519 8.21953 23 9.75818 23Z" fill="#F3F3F3"/>
</svg>
