<svg width="16" height="16" viewBox="0 0 16 16" fill="none" xmlns="http://www.w3.org/2000/svg">
<path d="M7.75 3C6.09375 3 4.75 4.34375 4.75 6C4.75 7.65625 6.09375 9 7.75 9C9.40625 9 10.75 7.65625 10.75 6C10.75 4.34375 9.40625 3 7.75 3ZM7.75 7.5C6.92188 7.5 6.25 6.82812 6.25 6C6.25 5.17188 6.92188 4.5 7.75 4.5C8.57812 4.5 9.25 5.17188 9.25 6C9.25 6.82812 8.57812 7.5 7.75 7.5ZM7.75 0C3.46875 0 0 3.46875 0 7.75C0 12.0312 3.46875 15.5 7.75 15.5C12.0312 15.5 15.5 12.0312 15.5 7.75C15.5 3.46875 12.0312 0 7.75 0ZM7.75 14C6.19688 14 4.77812 13.4281 3.68438 12.4875C4.15 11.7688 4.94688 11.2812 5.85938 11.2531C6.50938 11.4531 7.12813 11.5531 7.75 11.5531C8.37187 11.5531 8.99063 11.4563 9.64062 11.2531C10.5531 11.2844 11.35 11.7688 11.8156 12.4875C10.7219 13.4281 9.30313 14 7.75 14ZM12.8344 11.3719C12.0719 10.3906 10.8938 9.75 9.55 9.75C9.23125 9.75 8.7375 10.05 7.75 10.05C6.76562 10.05 6.26875 9.75 5.95 9.75C4.60938 9.75 3.43125 10.3906 2.66563 11.3719C1.93438 10.35 1.5 9.1 1.5 7.75C1.5 4.30312 4.30312 1.5 7.75 1.5C11.1969 1.5 14 4.30312 14 7.75C14 9.1 13.5656 10.35 12.8344 11.3719Z" fill="black"/>
</svg>
