<svg width="16" height="16" viewBox="0 0 16 16" fill="none" xmlns="http://www.w3.org/2000/svg">
<path d="M7.75 0C3.46875 0 0 3.46875 0 7.75C0 12.0312 3.46875 15.5 7.75 15.5C12.0312 15.5 15.5 12.0312 15.5 7.75C15.5 3.46875 12.0312 0 7.75 0ZM7.75 14C4.29688 14 1.5 11.2031 1.5 7.75C1.5 4.29688 4.29688 1.5 7.75 1.5C11.2031 1.5 14 4.29688 14 7.75C14 11.2031 11.2031 14 7.75 14ZM9.68125 10.7375L7.02812 8.80937C6.93125 8.7375 6.875 8.625 6.875 8.50625V3.375C6.875 3.16875 7.04375 3 7.25 3H8.25C8.45625 3 8.625 3.16875 8.625 3.375V7.80313L10.7125 9.32187C10.8812 9.44375 10.9156 9.67813 10.7937 9.84688L10.2063 10.6562C10.0844 10.8219 9.85 10.8594 9.68125 10.7375Z" fill="black"/>
</svg>
