<svg width="16" height="12" viewBox="0 0 16 12" fill="none" xmlns="http://www.w3.org/2000/svg">
<path d="M3 0H5.625C5.83125 0 6 0.16875 6 0.375V1.125C6 1.33125 5.83125 1.5 5.625 1.5H3C2.17188 1.5 1.5 2.17188 1.5 3V9C1.5 9.82812 2.17188 10.5 3 10.5H5.625C5.83125 10.5 6 10.6688 6 10.875V11.625C6 11.8312 5.83125 12 5.625 12H3C1.34375 12 0 10.6562 0 9V3C0 1.34375 1.34375 0 3 0ZM10.2219 0.609375L9.60938 1.22187C9.45937 1.37187 9.4625 1.6125 9.61563 1.75625L13.15 5.1875H5.375C5.16875 5.1875 5 5.35625 5 5.5625V6.4375C5 6.64375 5.16875 6.8125 5.375 6.8125H13.15L9.61563 10.2406C9.46563 10.3875 9.4625 10.6281 9.60938 10.775L10.2219 11.3875C10.3688 11.5344 10.6063 11.5344 10.7531 11.3875L15.8906 6.2625C16.0375 6.11562 16.0375 5.87812 15.8906 5.73125L10.7531 0.60625C10.6063 0.4625 10.3688 0.4625 10.2219 0.609375V0.609375Z" fill="black"/>
</svg>
