<svg width="48" height="48" viewBox="0 0 48 48" fill="none" xmlns="http://www.w3.org/2000/svg">
<rect x="0.5" y="0.5" width="47" height="47" rx="23.5" stroke="#575757"/>
<path d="M28.9875 25.4062C27.2498 25.4062 26.4143 26.375 23.5625 26.375C20.7107 26.375 19.8812 25.4062 18.1375 25.4062C13.6449 25.4062 10 29.0512 10 33.5437V35.0938C10 36.6982 11.3018 38 12.9062 38H34.2188C35.8232 38 37.125 36.6982 37.125 35.0938V33.5437C37.125 29.0512 33.4801 25.4062 28.9875 25.4062ZM34.2188 35.0938H12.9062V33.5437C12.9062 30.6617 15.2555 28.3125 18.1375 28.3125C19.0215 28.3125 20.4564 29.2812 23.5625 29.2812C26.6928 29.2812 28.0975 28.3125 28.9875 28.3125C31.8695 28.3125 34.2188 30.6617 34.2188 33.5437V35.0938ZM23.5625 24.4375C28.376 24.4375 32.2812 20.5322 32.2812 15.7188C32.2812 10.9053 28.376 7 23.5625 7C18.749 7 14.8438 10.9053 14.8438 15.7188C14.8438 20.5322 18.749 24.4375 23.5625 24.4375ZM23.5625 9.90625C26.7654 9.90625 29.375 12.5158 29.375 15.7188C29.375 18.9217 26.7654 21.5312 23.5625 21.5312C20.3596 21.5312 17.75 18.9217 17.75 15.7188C17.75 12.5158 20.3596 9.90625 23.5625 9.90625Z" fill="#575757"/>
</svg>
