<svg width="46" height="30" viewBox="0 0 46 30" fill="none" xmlns="http://www.w3.org/2000/svg">
<path d="M45.7289 13.7289L45.1102 13.1102C44.9633 12.9633 44.7258 12.9633 44.5789 13.1102L38.9195 18.757L33.2602 13.1102C33.1133 12.9633 32.8758 12.9633 32.7289 13.1102L32.1102 13.7289C31.9633 13.8758 31.9633 14.1133 32.1102 14.2602L38.6539 20.8039C38.8008 20.9508 39.0383 20.9508 39.1852 20.8039L45.7289 14.2602C45.8758 14.1133 45.8758 13.8758 45.7289 13.7289V13.7289Z" fill="#F3F3F3"/>
<rect x="0.5" y="0.5" width="29" height="29" rx="14.5" stroke="#F3F3F3"/>
<path d="M20.5 22H21V21.5V20.7C21 18.9364 19.5636 17.5 17.8 17.5C17.6061 17.5 17.4135 17.5513 17.2535 17.5988C17.173 17.6227 17.1029 17.6449 17.0321 17.6674C16.9323 17.699 16.831 17.731 16.6971 17.769C16.2902 17.8844 15.7518 18 15 18C14.2547 18 13.7154 17.8845 13.3058 17.7688C13.1714 17.7308 13.0693 17.6987 12.9687 17.6671C12.8974 17.6446 12.8269 17.6225 12.7462 17.5986C12.5861 17.5513 12.393 17.5 12.2 17.5C10.4364 17.5 9 18.9364 9 20.7V21.5V22H9.5H20.5ZM15 17.5C15.8028 17.5 16.3309 17.3615 16.7634 17.2276C16.8164 17.2113 16.8666 17.1955 16.9145 17.1804C17.2592 17.072 17.4882 17 17.8 17C19.8426 17 21.5 18.6574 21.5 20.7V21.5C21.5 22.052 21.052 22.5 20.5 22.5H9.5C8.94802 22.5 8.5 22.052 8.5 21.5V20.7C8.5 18.6574 10.1574 17 12.2 17C12.5135 17 12.7431 17.0722 13.088 17.1808C13.1355 17.1957 13.1852 17.2114 13.2376 17.2276C13.6698 17.3615 14.1971 17.5 15 17.5ZM19 11.5C19 13.7082 17.2082 15.5 15 15.5C12.7918 15.5 11 13.7082 11 11.5C11 9.29177 12.7918 7.5 15 7.5C17.2082 7.5 19 9.29177 19 11.5ZM18.5 11.5C18.5 9.57073 16.9293 8 15 8C13.0707 8 11.5 9.57073 11.5 11.5C11.5 13.4293 13.0707 15 15 15C16.9293 15 18.5 13.4293 18.5 11.5Z" stroke="#F3F3F3"/>
</svg>
